<svg width="86" height="40" viewBox="0 0 86 40" fill="none" xmlns="http://www.w3.org/2000/svg">
<g clip-path="url(#clip0_1_94)">
<path fill-rule="evenodd" clip-rule="evenodd" d="M16.9534 0.450622H16.9656H17.002C24.6153 1.36615 30.3556 7.87245 30.3556 15.5751C30.3556 23.1678 24.822 29.4667 17.5858 30.6263V31.3954H12.7698V30.6263C5.53357 29.4667 0 23.1678 0 15.5751C0 9.64248 3.4296 4.25921 8.78075 1.75677L9.37668 1.47601L11.4198 5.90716L10.8239 6.18791C7.19973 7.88465 4.86468 11.5346 4.86468 15.5751C4.86468 20.3969 8.17268 24.5472 12.7698 25.6459V0.523864L13.3657 0.450622C13.9616 0.37738 14.5697 0.340759 15.1778 0.340759C15.7737 0.340759 16.3696 0.37738 16.9534 0.450622ZM17.5858 25.6459C22.1829 24.5472 25.4909 20.3969 25.4909 15.5751C25.4909 10.7533 22.1829 6.60295 17.5858 5.50432V25.6459Z" fill="#2D2534"/>
<path d="M41.1306 8.87334H48.4885V4.97931H36.874V32.1765H48.4885V28.2947H41.1306V20.3357H47.3939L44.4995 17.9432H44.5116L44.4995 17.9188L46.5669 17.9066L45.5818 16.4417H41.1306V8.87334ZM19.6409 33.9832H12.9033L13.0736 35.0207H19.4585L19.1544 36.8152H13.3776L13.5479 37.865H18.9842L18.6801 39.6594H13.8519H11.675L11.2007 36.8152L10.8967 35.0207L10.4224 32.1765H12.5993H19.9328L19.6409 33.9832ZM49.0601 20.3357H51.1154V32.1765H62.7298V28.2947H55.3841V20.3357H61.2218V16.4417H55.3841V8.87334H62.7298V4.97931H51.1154V16.4417H47.2237L50.1911 18.8953L48.0992 18.9075L49.0601 20.3357ZM65.3689 32.1765H72.1062C76.3632 32.1765 78.4547 29.8084 78.4547 25.4627V11.7053C78.4547 7.34744 76.3632 4.97931 72.1062 4.97931H65.3689V32.1765ZM72.0215 8.87334C73.3835 8.87334 74.1984 9.56913 74.1984 11.5101V25.6579C74.1984 27.5989 73.3835 28.2947 72.0215 28.2947H69.6256V8.87334H72.0215ZM81.1672 32.1765H85.4235V4.97931H81.1672V32.1765Z" fill="#2D2534"/>
</g>
<defs>
<clipPath id="clip0_1_94">
<rect width="85.4237" height="40" fill="white"/>
</clipPath>
</defs>
</svg>
